<?xml version="1.0" encoding="iso-8859-1"?>
<!-- Generator: Adobe Illustrator 19.0.0, SVG Export Plug-In . SVG Version: 6.00 Build 0)  -->
<svg version="1.1" id="Capa_1" xmlns="http://www.w3.org/2000/svg" xmlns:xlink="http://www.w3.org/1999/xlink" x="0px" y="0px"
	 viewBox="0 0 488.775 488.775" style="enable-background:new 0 0 488.775 488.775;" xml:space="preserve">
<g>
	<path d="M484.125,230.819c0,0-86.1-131.3-239.7-131.3c-152.5,0-239.7,131.3-239.7,131.3c-6.3,8.3-6.3,19.8,0,27.1
		c0,0,82.3,128.6,239.7,131.3c156,2.6,239.7-131.3,239.7-131.3C490.325,249.519,490.325,238.019,484.125,230.819z M47.525,244.319
		c0,0,71.4-102.7,194.2-104.2c-56.1,1.4-101.5,47.8-101.5,104.2s45.4,102.7,101.5,104.2
		C117.625,347.019,47.525,244.319,47.525,244.319z M244.425,180.719c35.4,0,63.6,28.1,63.6,63.6c0,35.4-28.1,63.6-63.6,63.6
		s-63.6-28.1-63.6-63.6C180.825,208.919,209.025,180.719,244.425,180.719z M247.125,348.519c56.1-1.4,101.5-47.8,101.5-104.2
		c0-57.3-46.9-104.2-104.2-104.2c127.4,0,198,104.2,198,104.2S371.025,347.019,247.125,348.519z"/>
</g>
<g>
</g>
<g>
</g>
<g>
</g>
<g>
</g>
<g>
</g>
<g>
</g>
<g>
</g>
<g>
</g>
<g>
</g>
<g>
</g>
<g>
</g>
<g>
</g>
<g>
</g>
<g>
</g>
<g>
</g>
</svg>
