<svg version="1.1" xmlns="http://www.w3.org/2000/svg" viewBox="-2251.776075744629 -1546.2400314331055 5295.104318237304 2347.00807800293"><desc>Created with Snap</desc><defs></defs><g><g transform="matrix(54.144,0,0,54.144,-1944.5761,-1238.1737)"><g display="none"><rect x="-331.365" y="-102.667" display="inline" fill="#165a3f" width="473.333" height="236" style=""></rect></g><g display="none"><g display="inline"><g><path d="M30,1.984v28H2v-28H30 M32-0.016H0v32h32V-0.016L32-0.016z" fill="#165a3f" style=""></path></g></g><g display="inline"><g><polygon fill="#165a3f" points="10.918,9.09 15.398,16.831 6.439,16.831    " style=""></polygon></g><g><polygon fill="#165a3f" points="21.082,5.59 25.561,13.331 16.602,13.331    " style=""></polygon></g><g><polygon fill="#165a3f" points="10.918,18.669 15.398,26.41 6.439,26.41    " style=""></polygon></g><g><polygon points="21.082,15.169 25.561,22.91 16.602,22.91    " fill="#165a3f" style=""></polygon></g></g></g><g display="none"><g display="inline"><path fill="#165a3f" d="M31,0.984v30H1v-30H31 M32-0.016H0v32h32V-0.016L32-0.016z" style=""></path></g><g display="inline"><path fill="#165a3f" d="M10.918,11.087l2.745,4.744h-5.49L10.918,11.087 M10.918,9.09l-4.479,7.741h8.958L10.918,9.09L10.918,9.09    z" style=""></path></g><g display="inline"><path fill="#165a3f" d="M21.082,7.587l2.745,4.744h-5.49L21.082,7.587 M21.082,5.59l-4.479,7.741h8.958L21.082,5.59L21.082,5.59z" style=""></path></g><g display="inline"><path fill="#165a3f" d="M10.918,20.666l2.745,4.744h-5.49L10.918,20.666 M10.918,18.669L6.439,26.41h8.958L10.918,18.669    L10.918,18.669z" style=""></path></g><g display="inline"><path fill="#165a3f" d="M21.082,17.166l2.745,4.744h-5.49L21.082,17.166 M21.082,15.169l-4.479,7.741h8.958L21.082,15.169    L21.082,15.169z" style=""></path></g></g><g display="none"><g display="inline"><g><rect x="0.5" y="0.484" fill="#165a3f" width="31" height="31" style=""></rect></g><g><g><path d="M31,0.984v30H1v-30H31 M32-0.016H0v32h32V-0.016L32-0.016z" fill="#165a3f" style=""></path></g></g></g><g display="inline"><g><polygon fill="#165a3f" points="7.307,16.331 10.918,10.088 14.53,16.331    " style=""></polygon></g><g><g><path d="M10.918,11.087l2.745,4.744h-5.49L10.918,11.087 M10.918,9.09l-4.479,7.741h8.958L10.918,9.09L10.918,9.09z" fill="#165a3f" style=""></path></g></g></g><g display="inline"><g><polygon fill="#165a3f" points="17.47,12.831 21.082,6.588 24.693,12.831    " style=""></polygon></g><g><path d="M21.082,7.587l2.745,4.744h-5.49L21.082,7.587 M21.082,5.59l-4.479,7.741h8.958L21.082,5.59L21.082,5.59z" fill="#165a3f" style=""></path></g></g><g display="inline"><g><polygon fill="#165a3f" points="7.307,25.91 10.918,19.667 14.53,25.91    " style=""></polygon></g><g><g><path d="M10.918,20.666l2.745,4.744h-5.49L10.918,20.666 M10.918,18.669L6.439,26.41h8.958L10.918,18.669L10.918,18.669z" fill="#165a3f" style=""></path></g></g></g><g display="inline"><g><polygon fill="#165a3f" points="17.47,22.41 21.082,16.167 24.693,22.41    " style=""></polygon></g><g><path d="M21.082,17.166l2.745,4.744h-5.49L21.082,17.166 M21.082,15.169l-4.479,7.741h8.958L21.082,15.169L21.082,15.169z" fill="#165a3f" style=""></path></g></g></g><g><g><path d="M0,31.984h32v-32H0V31.984z M2,1.984h28v28H2V1.984z" fill="#165a3f" style=""></path><polygon points="6.439,16.831 15.398,16.831 10.918,9.09   " fill="#165a3f" style=""></polygon><polygon points="16.602,13.331 25.561,13.331 21.082,5.59   " fill="#165a3f" style=""></polygon><polygon points="6.439,26.41 15.398,26.41 10.918,18.669   " fill="#165a3f" style=""></polygon><polygon points="16.602,22.91 25.561,22.91 21.082,15.169   " fill="#165a3f" style=""></polygon></g></g><desc>Created with Snap</desc><defs></defs></g><g><g transform="matrix(1.024,0,0,-1.024,0,0)"><path d="M474 0L93 0L93 698L177 698L177 74L474 74L474 0ZM626 637Q600 637 588 649Q577 662 577 682L577 695Q577 715 588 727Q600 740 626 740Q652 740 663 727Q675 715 675 695L675 682Q675 662 663 649Q652 637 626 637ZM586 0L586 516L666 516L666 0L586 0ZM1043 0L950 0L769 516L849 516L939 260L995 84L1000 84L1056 260L1148 516L1225 516L1043 0ZM1408 0L1328 0L1328 516L1408 516L1408 421L1413 421Q1427 458 1463 487Q1499 516 1562 516L1593 516L1593 436L1546 436Q1481 436 1444 411Q1408 387 1408 350L1408 0ZM1889 -12Q1836 -12 1793 7Q1751 26 1720 61Q1690 97 1673 146Q1657 196 1657 258Q1657 319 1673 369Q1690 419 1720 454Q1751 490 1793 509Q1836 528 1889 528Q1941 528 1982 509Q2023 490 2052 456Q2081 423 2096 377Q2112 331 2112 276L2112 238L1741 238L1741 214Q1741 181 1751 152Q1762 124 1781 103Q1801 82 1829 70Q1858 58 1894 58Q1943 58 1979 81Q2016 104 2036 147L2093 106Q2068 53 2015 20Q1962 -12 1889 -12ZM1889 461Q1856 461 1829 449Q1802 438 1782 417Q1763 396 1752 367Q1741 339 1741 305L1741 298L2026 298L2026 309Q2026 378 1988 419Q1951 461 1889 461ZM2439 -12Q2387 -12 2344 7Q2301 26 2270 61Q2240 97 2223 146Q2206 196 2206 258Q2206 319 2223 369Q2240 419 2270 454Q2301 490 2344 509Q2387 528 2439 528Q2491 528 2533 509Q2576 490 2607 454Q2638 419 2655 369Q2672 319 2672 258Q2672 196 2655 146Q2638 97 2607 61Q2576 26 2533 7Q2491 -12 2439 -12ZM2439 59Q2504 59 2545 99Q2586 139 2586 221L2586 295Q2586 377 2545 417Q2504 457 2439 457Q2374 457 2333 417Q2292 377 2292 295L2292 221Q2292 139 2333 99Q2374 59 2439 59Z" fill="#165a3f" style=""></path></g></g></g></svg>